# xmcd CD database file
#
# Track frame offsets:
#	182
#	20007
#	43567
#	50940
#	55760
#	85375
#	98272
#	107587
#	122627
#	124802
#	135100
#	154297
#	165087
#	192310
#
# Disc length: 2770 seconds
#
# Revision: 5
# Processed by: cddbd v1.5.1PL2 Copyright (c) Steve Scherf et al.
# Submitted via: CDex 1.51
#
DISCID=ad0ad00e
DTITLE=Mannheim Steamroller - To Russia With Love
DYEAR=1994
DGENRE=New Age
TTITLE0=The Goodwill Games
TTITLE1=Ruslan and Ludmilla
TTITLE2=Melodie
TTITLE3=Let's Go Home
TTITLE4=Dancing Flames
TTITLE5=Troika from Lieutenant Kizheh
TTITLE6=The Goose From Smolensk
TTITLE7=Chakra III
TTITLE8=The Smolny Fanfare
TTITLE9=The Marche Miniature
TTITLE10=Fugue
TTITLE11=Bird in the Garden
TTITLE12=The Great Gate of Kiev
TTITLE13=The Anthems
EXTD=Chip Davis YEAR: 1994
EXTT0=
EXTT1=
EXTT2=
EXTT3=
EXTT4=
EXTT5=
EXTT6=
EXTT7=
EXTT8=
EXTT9=
EXTT10=
EXTT11=
EXTT12=
EXTT13=
PLAYORDER=
